# xmcd CD database file generated by Grip 3.2.0
# 
# Track frame offsets:
#       150
#       10050
#       28579
#       65622
#       86954
#       116202
#       131412
#       158189
#       187631
#       192579
#       212917
#       253450
#       271755
#       293055
# 
# Disc length: 4032 seconds
# 
# Revision: 1
# Processed by: cddbd v1.5.2PL0 Copyright (c) Steve Scherf et al.
# Submitted via: Grip 3.2.0
# 
DISCID=cf0fbe0e
DTITLE=Phantom West - The Rain Expedition
DYEAR=2006
DGENRE=Rhythmic Soul
TTITLE0=Phantom West - The Winter Market (Espionage Mix)
TTITLE1=Phantom West - The Rain Expedition (Demigod In Fluid Remix By The Oper
TTITLE1=ative)
TTITLE2=Phantom West - The Rain Expedition (Tonikom Remix)
TTITLE3=Phantom West - Nova (Nova_Clav Remix)
TTITLE4=Phantom West - The Rain Expedition (Rhythm And Rain Remix By Hazing Ri
TTITLE4=tual)
TTITLE5=Phantom West - The Winter Market (Flesh And Blood For Sale Remix By Ma
TTITLE5=nufactura)
TTITLE6=Phantom West - The Rain Expedition (Vuxnut Remix)
TTITLE7=Phantom West - Nova (Type III Mix)
TTITLE8=Phantom West - The Rain Expedition (Sys Ex Remix)
TTITLE9=Phantom West - The Rain Expedition (Cacophony Remix)
TTITLE10=Phantom West - Nova
TTITLE11=Phantom West - The Rain Expedition (Caustic Remix)
TTITLE12=Phantom West - The Winter Market (Overture)
TTITLE13=Phantom West - The Rain Expedition
EXTD=
EXTT0=
EXTT1=
EXTT2=
EXTT3=
EXTT4=
EXTT5=
EXTT6=
EXTT7=
EXTT8=
EXTT9=
EXTT10=
EXTT11=
EXTT12=
EXTT13=
PLAYORDER=
